<svg xmlns="http://www.w3.org/2000/svg" width="1100" height="590" viewBox="0 0 1100 590"><rect width="1100" height="590" rx="20" fill="#f7f9ef"/><g font-family="Arial, Malgun Gothic, sans-serif" fill="#283615"><text x="45" y="55" font-size="26" font-weight="700">NEW DROPS / Infrastructure</text><rect x="45" y="95" width="310" height="112" rx="14" fill="#d9ec8d" stroke="#8eaa66"/><text x="65" y="135" font-size="20" font-weight="700">Control plane × 1</text><text x="65" y="170" font-size="14">API Server · etcd · Scheduler</text><path d="M360 150h26m-7 -6l7 6 -7 6" fill="none" stroke="#678244" stroke-width="2"/><rect x="395" y="95" width="310" height="112" rx="14" fill="#d9ec8d" stroke="#8eaa66"/><text x="415" y="135" font-size="20" font-weight="700">Workers × 4</text><text x="415" y="170" font-size="14">서비스 · 데이터 · CI/CD 분리</text><path d="M710 150h26m-7 -6l7 6 -7 6" fill="none" stroke="#678244" stroke-width="2"/><rect x="745" y="95" width="310" height="112" rx="14" fill="#d9ec8d" stroke="#8eaa66"/><text x="765" y="135" font-size="20" font-weight="700">Windows Harbor</text><text x="765" y="170" font-size="14">Docker Desktop · WSL 2</text><rect x="45" y="245" width="310" height="112" rx="14" fill="#eaf1cd" stroke="#8eaa66"/><text x="65" y="285" font-size="20" font-weight="700">public / business</text><text x="65" y="320" font-size="14">React · API · Kafka consumers</text><path d="M360 300h26m-7 -6l7 6 -7 6" fill="none" stroke="#678244" stroke-width="2"/><rect x="395" y="245" width="310" height="112" rx="14" fill="#eaf1cd" stroke="#8eaa66"/><text x="415" y="285" font-size="20" font-weight="700">cicd / argocd</text><text x="415" y="320" font-size="14">Jenkins · SonarQube · Argo CD</text><path d="M710 300h26m-7 -6l7 6 -7 6" fill="none" stroke="#678244" stroke-width="2"/><rect x="745" y="245" width="310" height="112" rx="14" fill="#eaf1cd" stroke="#8eaa66"/><text x="765" y="285" font-size="20" font-weight="700">db</text><text x="765" y="320" font-size="14">MariaDB · MongoDB · MinIO</text><rect x="45" y="395" width="310" height="112" rx="14" fill="#fff" stroke="#8eaa66"/><text x="65" y="435" font-size="20" font-weight="700">Network</text><text x="65" y="470" font-size="14">Istio · Calico · NetworkPolicy</text><path d="M360 450h26m-7 -6l7 6 -7 6" fill="none" stroke="#678244" stroke-width="2"/><rect x="395" y="395" width="310" height="112" rx="14" fill="#fff" stroke="#8eaa66"/><text x="415" y="435" font-size="20" font-weight="700">Observability</text><text x="415" y="470" font-size="14">Prometheus · Grafana · Alloy</text><path d="M710 450h26m-7 -6l7 6 -7 6" fill="none" stroke="#678244" stroke-width="2"/><rect x="745" y="395" width="310" height="112" rx="14" fill="#fff" stroke="#8eaa66"/><text x="765" y="435" font-size="20" font-weight="700">Scaling</text><text x="765" y="470" font-size="14">서비스 HPA · Kafka lag KEDA</text><text x="45" y="560" font-size="13">제출된 draw.io · Jenkinsfile을 바탕으로 정리한 포트폴리오 요약도 / 원본 별도 제공</text></g></svg>