<svg xmlns="http://www.w3.org/2000/svg" width="1200" height="600" viewBox="0 0 1200 600"><defs><marker id="arrow" markerWidth="8" markerHeight="8" refX="7" refY="4" orient="auto"><path d="M0 0L8 4L0 8" fill="none" stroke="#8e747f"/></marker></defs><rect width="1200" height="600" rx="24" fill="#fcf0f5"/><text x="48" y="54" font-family="Arial,sans-serif" font-size="25" font-weight="bold" fill="#492738">DOCKER / APPLICATION TOPOLOGY</text><text x="48" y="84" font-family="Arial,sans-serif" font-size="14" fill="#765668">Application Compose + separate MSA and AI service configuration</text><path d="M298 170H333" fill="none" stroke="#8e747f" stroke-width="1.4" marker-end="url(#arrow)"/><path d="M583 170H618" fill="none" stroke="#8e747f" stroke-width="1.4" marker-end="url(#arrow)"/><path d="M458 215V238H1028V215" fill="none" stroke="#8e747f" stroke-width="1.4" marker-end="url(#arrow)"/><path d="M458 215V240.0H458V265" fill="none" stroke="#8e747f" stroke-width="1.4" marker-end="url(#arrow)"/><path d="M333 310H298" fill="none" stroke="#8e747f" stroke-width="1.4" marker-end="url(#arrow)"/><path d="M583 310H618" fill="none" stroke="#8e747f" stroke-width="1.4" marker-end="url(#arrow)"/><path d="M868 310H903" fill="none" stroke="#8e747f" stroke-width="1.4" marker-end="url(#arrow)"/><path d="M458 355V380.0H458V405" fill="none" stroke="#8e747f" stroke-width="1.4" marker-end="url(#arrow)"/><path d="M618 450H583" fill="none" stroke="#8e747f" stroke-width="1.4" marker-end="url(#arrow)"/><rect x="48" y="125" width="250" height="90" rx="15" fill="#f3e2e8" stroke="#8e747f"/><text x="173" y="160" text-anchor="middle" font-family="Arial,sans-serif" font-size="16" fill="#492738">Browser</text><rect x="333" y="125" width="250" height="90" rx="15" fill="#f3e2e8" stroke="#8e747f"/><text x="458" y="160" text-anchor="middle" font-family="Arial,sans-serif" font-size="16" fill="#492738">Nginx gateway</text><rect x="618" y="125" width="250" height="90" rx="15" fill="#f3e2e8" stroke="#8e747f"/><text x="743" y="160" text-anchor="middle" font-family="Arial,sans-serif" font-size="16" fill="#492738">Next.js frontend</text><rect x="903" y="125" width="250" height="90" rx="15" fill="#f3e2e8" stroke="#8e747f"/><text x="1028" y="160" text-anchor="middle" font-family="Arial,sans-serif" font-size="16" fill="#492738">Auth web</text><rect x="48" y="265" width="250" height="90" rx="15" fill="#f3e2e8" stroke="#8e747f"/><text x="173" y="300" text-anchor="middle" font-family="Arial,sans-serif" font-size="16" fill="#492738">PostgreSQL / MongoDB</text><rect x="333" y="265" width="250" height="90" rx="15" fill="#f3e2e8" stroke="#8e747f"/><text x="458" y="300" text-anchor="middle" font-family="Arial,sans-serif" font-size="16" fill="#492738">Domain MSA APIs</text><rect x="618" y="265" width="250" height="90" rx="15" fill="#f3e2e8" stroke="#8e747f"/><text x="743" y="300" text-anchor="middle" font-family="Arial,sans-serif" font-size="16" fill="#492738">FastAPI RAG</text><rect x="903" y="265" width="250" height="90" rx="15" fill="#f3e2e8" stroke="#8e747f"/><text x="1028" y="300" text-anchor="middle" font-family="Arial,sans-serif" font-size="16" fill="#492738">Bedrock Knowledge Base</text><rect x="333" y="405" width="250" height="90" rx="15" fill="#f3e2e8" stroke="#8e747f"/><text x="458" y="440" text-anchor="middle" font-family="Arial,sans-serif" font-size="16" fill="#492738">Kafka / messaging</text><rect x="618" y="405" width="250" height="90" rx="15" fill="#f3e2e8" stroke="#8e747f"/><text x="743" y="440" text-anchor="middle" font-family="Arial,sans-serif" font-size="16" fill="#492738">Consumers / schedulers</text><text x="48" y="565" font-family="Arial,sans-serif" font-size="13" fill="#765668">CODE-BASED RECONSTRUCTION / Logical relationships, not a physical network map</text></svg>